<mxfile host="app.diagrams.net" modified="2023-10-16T09:15:59.071Z" agent="Mozilla/5.0 (Windows NT 10.0; Win64; x64; rv:109.0) Gecko/20100101 Firefox/118.0" etag="-uaoIPGa7vowV9RFEldt" version="22.0.4" type="github" pages="2">
  <diagram name="Page-1" id="9KHQHG-qlJXWFZy_Arkj">
    <mxGraphModel dx="1384" dy="1854" grid="1" gridSize="10" guides="1" tooltips="1" connect="1" arrows="1" fold="1" page="1" pageScale="1" pageWidth="827" pageHeight="1169" math="0" shadow="0">
      <root>
        <mxCell id="0" />
        <mxCell id="1" parent="0" />
        <mxCell id="7XjFMBcLAWE_dVAATYlJ-1" value="Département en manque de matériel" style="swimlane;whiteSpace=wrap;sketch=0;container=0;" vertex="1" parent="1">
          <mxGeometry x="104.5" y="80" width="135.5" height="730" as="geometry" />
        </mxCell>
        <mxCell id="7XjFMBcLAWE_dVAATYlJ-2" value="" style="ellipse;shape=startState;fillColor=#dae8fc;strokeColor=#6c8ebf;" vertex="1" parent="7XjFMBcLAWE_dVAATYlJ-1">
          <mxGeometry x="52.75" y="35" width="30" height="30" as="geometry" />
        </mxCell>
        <mxCell id="7XjFMBcLAWE_dVAATYlJ-3" value="" style="ellipse;html=1;shape=endState;fillColor=#dae8fc;strokeColor=#6c8ebf;rounded=1;" vertex="1" parent="7XjFMBcLAWE_dVAATYlJ-1">
          <mxGeometry x="46.5" y="680" width="30" height="30" as="geometry" />
        </mxCell>
        <mxCell id="7XjFMBcLAWE_dVAATYlJ-4" value="Service financier" style="swimlane;whiteSpace=wrap;expand=1;container=0;startSize=23;" vertex="1" parent="1">
          <mxGeometry x="470" y="80" width="371" height="730" as="geometry" />
        </mxCell>
        <mxCell id="7XjFMBcLAWE_dVAATYlJ-5" value="Activité" style="rounded=1;whiteSpace=wrap;html=1;arcSize=18;fillColor=#dae8fc;strokeColor=#6c8ebf;hachureGap=4;pointerEvents=0;" vertex="1" parent="7XjFMBcLAWE_dVAATYlJ-4">
          <mxGeometry x="110" y="160" width="120" height="40" as="geometry" />
        </mxCell>
        <mxCell id="7XjFMBcLAWE_dVAATYlJ-6" value="Magasin " style="swimlane;whiteSpace=wrap;container=0;startSize=23;" vertex="1" parent="1">
          <mxGeometry x="841" y="80" width="159" height="730" as="geometry" />
        </mxCell>
        <mxCell id="7XjFMBcLAWE_dVAATYlJ-7" value="Service d&#39;acaht" style="swimlane;whiteSpace=wrap;container=0;" vertex="1" parent="1">
          <mxGeometry x="240" y="80" width="230" height="730" as="geometry" />
        </mxCell>
        <mxCell id="7XjFMBcLAWE_dVAATYlJ-8" value="Activité" style="rounded=1;whiteSpace=wrap;html=1;arcSize=22;fillColor=#dae8fc;strokeColor=#6c8ebf;hachureGap=4;pointerEvents=0;" vertex="1" parent="7XjFMBcLAWE_dVAATYlJ-7">
          <mxGeometry x="55" y="30" width="120" height="40" as="geometry" />
        </mxCell>
        <mxCell id="7XjFMBcLAWE_dVAATYlJ-9" value="" style="edgeStyle=orthogonalEdgeStyle;html=1;verticalAlign=bottom;endArrow=block;endSize=8;strokeColor=#6c8ebf;sourcePerimeterSpacing=8;targetPerimeterSpacing=8;entryX=0.5;entryY=0;entryDx=0;entryDy=0;exitX=0.5;exitY=1;exitDx=0;exitDy=0;fillColor=#dae8fc;endFill=1;" edge="1" parent="7XjFMBcLAWE_dVAATYlJ-7" source="7XjFMBcLAWE_dVAATYlJ-8" target="7XjFMBcLAWE_dVAATYlJ-11">
          <mxGeometry relative="1" as="geometry">
            <mxPoint x="101" y="192" as="targetPoint" />
          </mxGeometry>
        </mxCell>
        <mxCell id="7XjFMBcLAWE_dVAATYlJ-10" value="OUI" style="edgeStyle=orthogonalEdgeStyle;orthogonalLoop=1;jettySize=auto;html=1;entryX=0.442;entryY=-0.025;entryDx=0;entryDy=0;entryPerimeter=0;endArrow=block;sourcePerimeterSpacing=8;targetPerimeterSpacing=8;strokeColor=#6c8ebf;verticalAlign=bottom;exitX=0;exitY=0.5;exitDx=0;exitDy=0;fillColor=#dae8fc;endFill=1;" edge="1" parent="7XjFMBcLAWE_dVAATYlJ-7" source="7XjFMBcLAWE_dVAATYlJ-11" target="7XjFMBcLAWE_dVAATYlJ-12">
          <mxGeometry x="0.3667" relative="1" as="geometry">
            <Array as="points">
              <mxPoint x="64" y="120" />
            </Array>
            <mxPoint as="offset" />
          </mxGeometry>
        </mxCell>
        <mxCell id="7XjFMBcLAWE_dVAATYlJ-11" value="Décision" style="rhombus;whiteSpace=wrap;html=1;fillColor=#dae8fc;strokeColor=#6c8ebf;hachureGap=4;pointerEvents=0;" vertex="1" parent="7XjFMBcLAWE_dVAATYlJ-7">
          <mxGeometry x="75" y="100" width="80" height="40" as="geometry" />
        </mxCell>
        <mxCell id="7XjFMBcLAWE_dVAATYlJ-12" value="Activité" style="rounded=1;whiteSpace=wrap;html=1;arcSize=23;hachureGap=4;pointerEvents=0;fillColor=#dae8fc;strokeColor=#6c8ebf;" vertex="1" parent="7XjFMBcLAWE_dVAATYlJ-7">
          <mxGeometry x="11" y="170" width="120" height="40" as="geometry" />
        </mxCell>
        <mxCell id="7XjFMBcLAWE_dVAATYlJ-13" value="" style="edgeStyle=elbowEdgeStyle;elbow=horizontal;verticalAlign=bottom;endArrow=block;endSize=8;strokeColor=#6c8ebf;endFill=1;exitX=1;exitY=0.5;exitDx=0;exitDy=0;entryX=0;entryY=0.5;entryDx=0;entryDy=0;fillColor=#dae8fc;" edge="1" parent="1" source="7XjFMBcLAWE_dVAATYlJ-2" target="7XjFMBcLAWE_dVAATYlJ-8">
          <mxGeometry x="163.5" y="168" as="geometry">
            <mxPoint x="270" y="278" as="targetPoint" />
            <Array as="points">
              <mxPoint x="240" y="150" />
            </Array>
          </mxGeometry>
        </mxCell>
        <mxCell id="7XjFMBcLAWE_dVAATYlJ-14" value="Fournisseur" style="swimlane;whiteSpace=wrap;container=0;startSize=23;" vertex="1" parent="1">
          <mxGeometry x="1000" y="80" width="165" height="730" as="geometry" />
        </mxCell>
        <mxCell id="7XjFMBcLAWE_dVAATYlJ-15" value="Etat" style="html=1;align=center;verticalAlign=top;rounded=1;absoluteArcSize=1;arcSize=10;dashed=0;hachureGap=4;pointerEvents=0;" vertex="1" parent="7XjFMBcLAWE_dVAATYlJ-14">
          <mxGeometry x="15.5" y="230" width="109" height="40" as="geometry" />
        </mxCell>
        <mxCell id="7XjFMBcLAWE_dVAATYlJ-16" value="" style="edgeStyle=orthogonalEdgeStyle;html=1;verticalAlign=bottom;endArrow=block;endSize=8;strokeColor=#6c8ebf;rounded=0;exitX=1;exitY=0.5;exitDx=0;exitDy=0;fillColor=#dae8fc;endFill=1;" edge="1" parent="7XjFMBcLAWE_dVAATYlJ-14" source="7XjFMBcLAWE_dVAATYlJ-5">
          <mxGeometry relative="1" as="geometry">
            <mxPoint x="82" y="230" as="targetPoint" />
            <mxPoint x="-310" y="180" as="sourcePoint" />
            <Array as="points">
              <mxPoint x="82" y="180" />
            </Array>
          </mxGeometry>
        </mxCell>
        <mxCell id="7XjFMBcLAWE_dVAATYlJ-17" value="" style="edgeStyle=orthogonalEdgeStyle;rounded=0;orthogonalLoop=1;jettySize=auto;html=1;endArrow=block;endSize=8;strokeColor=#6c8ebf;verticalAlign=bottom;entryX=0.5;entryY=0;entryDx=0;entryDy=0;fillColor=#dae8fc;endFill=1;" edge="1" parent="1" target="7XjFMBcLAWE_dVAATYlJ-3">
          <mxGeometry relative="1" as="geometry">
            <mxPoint x="320" y="710" as="sourcePoint" />
          </mxGeometry>
        </mxCell>
        <mxCell id="7XjFMBcLAWE_dVAATYlJ-18" value="NON" style="edgeStyle=orthogonalEdgeStyle;orthogonalLoop=1;jettySize=auto;html=1;entryX=0.633;entryY=-0.1;entryDx=0;entryDy=0;entryPerimeter=0;endArrow=block;sourcePerimeterSpacing=8;targetPerimeterSpacing=8;strokeColor=#6c8ebf;verticalAlign=bottom;exitX=1;exitY=0.5;exitDx=0;exitDy=0;fillColor=#dae8fc;endFill=1;" edge="1" parent="1" source="7XjFMBcLAWE_dVAATYlJ-11" target="7XjFMBcLAWE_dVAATYlJ-5">
          <mxGeometry relative="1" as="geometry" />
        </mxCell>
        <mxCell id="7XjFMBcLAWE_dVAATYlJ-19" style="edgeStyle=orthogonalEdgeStyle;rounded=0;orthogonalLoop=1;jettySize=auto;html=1;fillColor=#dae8fc;strokeColor=#6c8ebf;endArrow=block;endFill=1;" edge="1" parent="1" source="7XjFMBcLAWE_dVAATYlJ-12">
          <mxGeometry relative="1" as="geometry">
            <mxPoint x="311" y="350" as="targetPoint" />
          </mxGeometry>
        </mxCell>
      </root>
    </mxGraphModel>
  </diagram>
  <diagram name="Sketch" id="FCVsnvFQxbDcJlqJv_GM">
    <mxGraphModel dx="1434" dy="750" grid="1" gridSize="10" guides="1" tooltips="1" connect="1" arrows="1" fold="1" page="1" pageScale="1" pageWidth="1169" pageHeight="826" background="none" math="0" shadow="0">
      <root>
        <mxCell id="2q269hW7UWUkygbeuLC9-0" />
        <mxCell id="2q269hW7UWUkygbeuLC9-1" parent="2q269hW7UWUkygbeuLC9-0" />
        <mxCell id="2q269hW7UWUkygbeuLC9-2" value="Acteur principal" style="swimlane;whiteSpace=wrap;sketch=0;container=0;" vertex="1" parent="2q269hW7UWUkygbeuLC9-1">
          <mxGeometry x="63.5" y="40" width="135.5" height="730" as="geometry" />
        </mxCell>
        <mxCell id="2q269hW7UWUkygbeuLC9-3" value="" style="ellipse;shape=startState;fillColor=#000000;strokeColor=#ff0000;sketch=1;" vertex="1" parent="2q269hW7UWUkygbeuLC9-2">
          <mxGeometry x="52.75" y="35" width="30" height="30" as="geometry" />
        </mxCell>
        <mxCell id="2q269hW7UWUkygbeuLC9-4" value="" style="ellipse;html=1;shape=endState;fillColor=#000000;strokeColor=#ff0000;rounded=1;sketch=1;" vertex="1" parent="2q269hW7UWUkygbeuLC9-2">
          <mxGeometry x="46.5" y="680" width="30" height="30" as="geometry" />
        </mxCell>
        <mxCell id="2q269hW7UWUkygbeuLC9-5" value="Acteur sec." style="swimlane;whiteSpace=wrap;sketch=1;container=0;" vertex="1" parent="2q269hW7UWUkygbeuLC9-1">
          <mxGeometry x="429" y="40" width="371" height="730" as="geometry" />
        </mxCell>
        <mxCell id="2q269hW7UWUkygbeuLC9-6" value="Activité" style="rounded=1;whiteSpace=wrap;html=1;arcSize=30;fontColor=#000000;fillColor=#ffffc0;strokeColor=#ff0000;hachureGap=4;pointerEvents=0;sketch=1;" vertex="1" parent="2q269hW7UWUkygbeuLC9-5">
          <mxGeometry x="110" y="160" width="120" height="40" as="geometry" />
        </mxCell>
        <mxCell id="2q269hW7UWUkygbeuLC9-7" value="Acteur sec." style="swimlane;whiteSpace=wrap;sketch=1;container=0;" vertex="1" parent="2q269hW7UWUkygbeuLC9-1">
          <mxGeometry x="800" y="40" width="184.5" height="730" as="geometry" />
        </mxCell>
        <mxCell id="2q269hW7UWUkygbeuLC9-8" value="Acteur sec." style="swimlane;whiteSpace=wrap;sketch=1;container=0;" vertex="1" parent="2q269hW7UWUkygbeuLC9-1">
          <mxGeometry x="200" y="40" width="230" height="730" as="geometry" />
        </mxCell>
        <mxCell id="2q269hW7UWUkygbeuLC9-9" value="Activité" style="rounded=1;whiteSpace=wrap;html=1;arcSize=23;fontColor=#000000;fillColor=#ffffc0;strokeColor=#ff0000;hachureGap=4;pointerEvents=0;sketch=1;" vertex="1" parent="2q269hW7UWUkygbeuLC9-8">
          <mxGeometry x="55" y="30" width="120" height="40" as="geometry" />
        </mxCell>
        <mxCell id="2q269hW7UWUkygbeuLC9-10" value="" style="edgeStyle=orthogonalEdgeStyle;html=1;verticalAlign=bottom;endArrow=open;endSize=8;strokeColor=#ff0000;sourcePerimeterSpacing=8;targetPerimeterSpacing=8;sketch=1;entryX=0.5;entryY=0;entryDx=0;entryDy=0;exitX=0.5;exitY=1;exitDx=0;exitDy=0;" edge="1" parent="2q269hW7UWUkygbeuLC9-8" source="2q269hW7UWUkygbeuLC9-9" target="2q269hW7UWUkygbeuLC9-12">
          <mxGeometry relative="1" as="geometry">
            <mxPoint x="101" y="192" as="targetPoint" />
          </mxGeometry>
        </mxCell>
        <mxCell id="2q269hW7UWUkygbeuLC9-11" value="OUI" style="edgeStyle=orthogonalEdgeStyle;sketch=1;orthogonalLoop=1;jettySize=auto;html=1;entryX=0.442;entryY=-0.025;entryDx=0;entryDy=0;entryPerimeter=0;endArrow=open;sourcePerimeterSpacing=8;targetPerimeterSpacing=8;strokeColor=#ff0000;verticalAlign=bottom;exitX=0;exitY=0.5;exitDx=0;exitDy=0;" edge="1" parent="2q269hW7UWUkygbeuLC9-8" source="2q269hW7UWUkygbeuLC9-12" target="2q269hW7UWUkygbeuLC9-13">
          <mxGeometry x="0.3667" relative="1" as="geometry">
            <Array as="points">
              <mxPoint x="64" y="120" />
            </Array>
            <mxPoint as="offset" />
          </mxGeometry>
        </mxCell>
        <mxCell id="2q269hW7UWUkygbeuLC9-12" value="Décision" style="rhombus;whiteSpace=wrap;html=1;fillColor=#ffffc0;strokeColor=#ff0000;hachureGap=4;pointerEvents=0;sketch=1;" vertex="1" parent="2q269hW7UWUkygbeuLC9-8">
          <mxGeometry x="75" y="100" width="80" height="40" as="geometry" />
        </mxCell>
        <mxCell id="2q269hW7UWUkygbeuLC9-13" value="Activité" style="rounded=1;whiteSpace=wrap;html=1;arcSize=25;fontColor=#000000;fillColor=#ffffc0;strokeColor=#ff0000;hachureGap=4;pointerEvents=0;sketch=1;" vertex="1" parent="2q269hW7UWUkygbeuLC9-8">
          <mxGeometry x="11" y="170" width="120" height="40" as="geometry" />
        </mxCell>
        <mxCell id="2q269hW7UWUkygbeuLC9-14" value="" style="edgeStyle=elbowEdgeStyle;elbow=horizontal;verticalAlign=bottom;endArrow=open;endSize=8;strokeColor=#FF0000;endFill=1;sketch=1;exitX=1;exitY=0.5;exitDx=0;exitDy=0;entryX=0;entryY=0.5;entryDx=0;entryDy=0;" edge="1" parent="2q269hW7UWUkygbeuLC9-1" source="2q269hW7UWUkygbeuLC9-3" target="2q269hW7UWUkygbeuLC9-9">
          <mxGeometry x="163.5" y="168" as="geometry">
            <mxPoint x="230" y="238" as="targetPoint" />
            <Array as="points">
              <mxPoint x="200" y="110" />
            </Array>
          </mxGeometry>
        </mxCell>
        <mxCell id="2q269hW7UWUkygbeuLC9-15" value="Acteur sec. ext." style="swimlane;whiteSpace=wrap;sketch=1;container=0;" vertex="1" parent="2q269hW7UWUkygbeuLC9-1">
          <mxGeometry x="984.5" y="40" width="140" height="730" as="geometry" />
        </mxCell>
        <mxCell id="2q269hW7UWUkygbeuLC9-16" value="Etat" style="html=1;align=center;verticalAlign=top;rounded=1;absoluteArcSize=1;arcSize=10;dashed=0;hachureGap=4;pointerEvents=0;sketch=1;" vertex="1" parent="2q269hW7UWUkygbeuLC9-15">
          <mxGeometry x="15.5" y="230" width="109" height="40" as="geometry" />
        </mxCell>
        <mxCell id="2q269hW7UWUkygbeuLC9-17" value="" style="edgeStyle=orthogonalEdgeStyle;html=1;verticalAlign=bottom;endArrow=open;endSize=8;strokeColor=#ff0000;rounded=0;sketch=1;exitX=1;exitY=0.5;exitDx=0;exitDy=0;" edge="1" parent="2q269hW7UWUkygbeuLC9-1" source="2q269hW7UWUkygbeuLC9-6" target="2q269hW7UWUkygbeuLC9-16">
          <mxGeometry relative="1" as="geometry">
            <mxPoint x="860" y="440" as="targetPoint" />
            <mxPoint x="769" y="440" as="sourcePoint" />
            <Array as="points">
              <mxPoint x="1052" y="220" />
            </Array>
          </mxGeometry>
        </mxCell>
        <mxCell id="2q269hW7UWUkygbeuLC9-18" value="" style="edgeStyle=orthogonalEdgeStyle;rounded=0;sketch=1;orthogonalLoop=1;jettySize=auto;html=1;endArrow=open;endSize=8;strokeColor=#ff0000;verticalAlign=bottom;entryX=0.5;entryY=0;entryDx=0;entryDy=0;" edge="1" parent="2q269hW7UWUkygbeuLC9-1" target="2q269hW7UWUkygbeuLC9-4">
          <mxGeometry relative="1" as="geometry">
            <mxPoint x="280" y="670" as="sourcePoint" />
          </mxGeometry>
        </mxCell>
        <mxCell id="2q269hW7UWUkygbeuLC9-19" value="NON" style="edgeStyle=orthogonalEdgeStyle;sketch=1;orthogonalLoop=1;jettySize=auto;html=1;entryX=0.633;entryY=-0.1;entryDx=0;entryDy=0;entryPerimeter=0;endArrow=open;sourcePerimeterSpacing=8;targetPerimeterSpacing=8;strokeColor=#ff0000;verticalAlign=bottom;exitX=1;exitY=0.5;exitDx=0;exitDy=0;" edge="1" parent="2q269hW7UWUkygbeuLC9-1" source="2q269hW7UWUkygbeuLC9-12" target="2q269hW7UWUkygbeuLC9-6">
          <mxGeometry relative="1" as="geometry" />
        </mxCell>
        <mxCell id="2q269hW7UWUkygbeuLC9-20" style="edgeStyle=orthogonalEdgeStyle;rounded=0;sketch=1;orthogonalLoop=1;jettySize=auto;html=1;fillColor=#f8cecc;strokeColor=#FF0000;" edge="1" parent="2q269hW7UWUkygbeuLC9-1" source="2q269hW7UWUkygbeuLC9-13">
          <mxGeometry relative="1" as="geometry">
            <mxPoint x="271" y="310" as="targetPoint" />
          </mxGeometry>
        </mxCell>
      </root>
    </mxGraphModel>
  </diagram>
</mxfile>
